# xmcd CD database file
#
# Track frame offsets:
#	150
#	20048
#	37892
#	56303
#	78077
#	91228
#	111426
#	131285
#	146417
#	160687
#	175332
#	189829
#
# Disc length: 2816 seconds
#
# Revision: 1
# Processed by: cddbd v1.5.2PL0 Copyright (c) Steve Scherf et al.
# Submitted via: CDex 1.51
#
DISCID=8a0afe0c
DTITLE=Lights Out By Nine - Make Your Own Luck
DYEAR=2007
DGENRE=Blues
TTITLE0=Sweet Prison
TTITLE1=How Long
TTITLE2=Quiet Man
TTITLE3=Fumbling With The Blues
TTITLE4=You Better Stop
TTITLE5=Love By Numbers
TTITLE6=Some Surprise
TTITLE7=Let It Go
TTITLE8=Still My Baby
TTITLE9=Keeping It All Alive
TTITLE10=Long Way Down
TTITLE11=Dream On
EXTD=YEAR: 2007
EXTT0=
EXTT1=
EXTT2=
EXTT3=
EXTT4=
EXTT5=
EXTT6=
EXTT7=
EXTT8=
EXTT9=
EXTT10=
EXTT11=
PLAYORDER=
